<svg width="100%" viewBox="0 0 41 41" fill="none" xmlns="http://www.w3.org/2000/svg">
                        <path d="M39.9482 0.970703H1.08772C0.709422 0.970703 0.404297 1.27612 0.404297 1.65413V40.2873C0.404297 40.6656 0.709711 40.9707 1.08772 40.9707H36.4031C38.736 40.9707 40.6315 39.0751 40.6315 36.7424V1.65424C40.6315 1.27594 40.3261 0.970814 39.948 0.970814L39.9482 0.970703ZM39.2647 20.1751H35.2871C35.3692 19.7968 35.41 19.4052 35.41 19.0087C35.41 15.9925 32.9586 13.541 29.9424 13.541C26.9261 13.541 24.4747 15.9924 24.4747 19.0087C24.4747 19.4095 24.5157 19.8014 24.6022 20.1887H20.9844V15.6553C20.9844 15.4274 20.8705 15.2134 20.679 15.0858C20.4875 14.9583 20.246 14.9354 20.0367 15.0265C19.5308 15.2405 18.9931 15.3502 18.4419 15.3502C16.182 15.3502 14.3414 13.5093 14.3414 11.2496C14.3414 8.98971 16.1822 7.14908 18.4419 7.14908C18.9932 7.14908 19.5262 7.25378 20.0274 7.46809C20.2371 7.5592 20.4786 7.53201 20.6697 7.4088C20.8612 7.28125 20.9752 7.06695 20.9752 6.83933L20.9757 2.33735H39.265L39.2647 20.1751ZM19.6087 2.33748V5.90063C19.2304 5.81849 18.8388 5.77771 18.4423 5.77771C15.426 5.77771 12.9746 8.22909 12.9746 11.2454C12.9746 14.2617 15.426 16.7131 18.4423 16.7131C18.8431 16.7131 19.235 16.672 19.6223 16.5855V20.1895H15.0842C14.8563 20.1895 14.6423 20.3034 14.5147 20.4949C14.3872 20.6864 14.3644 20.9279 14.4555 21.1372C14.6695 21.6385 14.7745 22.1761 14.7745 22.732C14.7745 24.9919 12.9336 26.8325 10.6739 26.8325C8.41401 26.8325 6.57338 24.9917 6.57338 22.732C6.57338 22.1807 6.67808 21.6477 6.88776 21.1465C6.97424 20.9368 6.95168 20.6953 6.82847 20.5042C6.70093 20.3127 6.48662 20.1987 6.25901 20.1987L1.77095 20.1982V2.33757L19.6087 2.33748ZM1.77107 21.5693H5.33423C5.25209 21.9476 5.21131 22.3391 5.21131 22.7357C5.21131 25.7519 7.66268 28.2034 10.679 28.2034C13.6953 28.2034 16.1467 25.752 16.1467 22.7357C16.1467 22.3348 16.1056 21.943 16.0191 21.5557H19.6231V26.1027C19.6231 26.3306 19.737 26.5447 19.9285 26.6722C20.1199 26.7997 20.3614 26.8226 20.5708 26.7315C21.072 26.5175 21.6097 26.4125 22.1656 26.4125C24.4255 26.4125 26.2661 28.2533 26.2661 30.513C26.2661 32.7729 24.4253 34.6136 22.1656 34.6136C21.6143 34.6136 21.0856 34.5089 20.5801 34.2945C20.3704 34.2081 20.1289 34.2306 19.9377 34.3538C19.7463 34.4814 19.6323 34.6957 19.6323 34.9233V39.6025L1.771 39.6031L1.77107 21.5693ZM36.4031 39.6031H20.9984V35.8534C21.3767 35.9355 21.7683 35.9763 22.1648 35.9763C25.1811 35.9763 27.6325 33.5249 27.6325 30.5086C27.6325 27.4924 25.1811 25.0409 22.1648 25.0409C21.764 25.0409 21.3721 25.082 20.9895 25.1685V21.5507H25.5365C25.7644 21.5507 25.9785 21.4367 26.106 21.2453C26.2335 21.0538 26.2564 20.8123 26.1653 20.6029C25.9513 20.0971 25.8417 19.5594 25.8417 19.0082C25.8417 16.7483 27.6825 14.9076 29.9422 14.9076C32.2021 14.9076 34.0427 16.7485 34.0427 19.0082C34.0427 19.5594 33.938 20.0925 33.7283 20.5937C33.6419 20.8033 33.6644 21.0448 33.7876 21.236C33.9152 21.4275 34.1295 21.5414 34.3571 21.5414H39.2642V36.741C39.2642 38.3176 37.9793 39.6023 36.403 39.6023L36.4031 39.6031Z" fill="white"/>
                      </svg>