<svg width="100%" viewBox="0 0 301 301" fill="none" xmlns="http://www.w3.org/2000/svg">
                        <path d="M282.41 153.5C282.41 143.75 281.535 134.375 279.91 125.375H150.41V178.562H224.41C221.222 195.75 211.535 210.312 196.972 220.062V254.562H241.41C267.41 230.625 282.41 195.375 282.41 153.5Z" fill="#4285F4"/>
                        <path d="M150.41 287.875C187.535 287.875 218.66 275.562 241.41 254.562L196.972 220.062C184.66 228.312 168.91 233.187 150.41 233.187C114.597 233.187 84.2848 209 73.4723 176.5H27.5348V212.125C50.1598 257.062 96.6598 287.875 150.41 287.875Z" fill="#34A853"/>
                        <path d="M73.4723 176.5C70.7223 168.25 69.1598 159.437 69.1598 150.375C69.1598 141.312 70.7223 132.5 73.4723 124.25V88.6249H27.5348C17.9098 107.786 12.9013 128.933 12.9098 150.375C12.9098 172.562 18.2223 193.562 27.5348 212.125L73.4723 176.5Z" fill="#FBBC05"/>
                        <path d="M150.41 67.5624C170.597 67.5624 188.722 74.4999 202.972 88.1249L242.41 48.6874C218.597 26.4999 187.472 12.8749 150.41 12.8749C96.6598 12.8749 50.1598 43.6874 27.5348 88.6249L73.4723 124.25C84.2848 91.7499 114.597 67.5624 150.41 67.5624Z" fill="#EA4335"/>
                      </svg>