<svg width="100%" viewBox="0 0 41 41" fill="none" xmlns="http://www.w3.org/2000/svg">
                        <path d="M40.2808 14.5703L37.3182 10.203C37.1912 10.0158 36.9824 9.90171 36.7557 9.90171H25.0819L25.0816 1.65523C25.0816 1.27632 24.7775 0.970703 24.4011 0.970703H15.994C15.6173 0.970703 15.3135 1.27661 15.3135 1.65523V3.62682H3.64408C3.41715 3.62682 3.20864 3.74096 3.08163 3.92809L0.119011 8.29072C-0.0396703 8.52333 -0.0396703 8.82924 0.119011 9.06182L3.08163 13.4291C3.20864 13.6163 3.41743 13.7304 3.64408 13.7304H15.3179V16.1857H3.64408C3.41715 16.1857 3.20864 16.2999 3.08163 16.487L0.119011 20.8499C-0.0396703 21.0825 -0.0396703 21.3884 0.119011 21.621L3.08163 25.9883C3.20864 26.1755 3.41743 26.285 3.64408 26.285H15.3179V40.2862C15.3179 40.6651 15.622 40.9707 15.9985 40.9707H21.1207C23.3075 40.9707 25.0861 39.1816 25.0861 36.9821V20.01H36.76C36.9869 20.01 37.1954 19.8959 37.3224 19.7134L40.285 15.3461C40.4437 15.1135 40.4437 14.8076 40.285 14.575L40.2808 14.5703ZM4.00297 12.3615L1.50748 8.67872L4.00297 4.99598H15.3185V12.3615H4.00297ZM4.00297 24.921L1.50748 21.2383L4.00297 17.5556H15.3185V24.9213L4.00297 24.921ZM23.7211 36.9874C23.7211 38.4341 22.5507 39.607 21.1168 39.607H16.6751L16.6754 2.34064H23.7214L23.7211 36.9874ZM36.3976 18.642H25.0821V11.2762H36.3976L38.8931 14.9589L36.3976 18.642Z" fill="white"/>
                      </svg>