<svg width="1482" height="442" viewBox="0 0 1482 442" fill="none" xmlns="http://www.w3.org/2000/svg">
<g opacity="0.5">
<line opacity="0.5" x1="1480" y1="0.883606" x2="0.000183023" y2="0.883537" stroke="#165E67"/>
<line opacity="0.5" x1="1480" y1="40.8837" x2="0.000183023" y2="40.8836" stroke="#165E67"/>
<line opacity="0.5" x1="1480" y1="80.8838" x2="0.000183023" y2="80.8837" stroke="#165E67"/>
<line opacity="0.5" x1="1480" y1="120.884" x2="0.000183023" y2="120.884" stroke="#165E67"/>
<line opacity="0.5" x1="1480" y1="160.884" x2="0.000183023" y2="160.884" stroke="#165E67"/>
<line opacity="0.5" x1="1480" y1="200.884" x2="0.000183023" y2="200.884" stroke="#165E67"/>
<line opacity="0.5" x1="1480" y1="240.884" x2="0.000183023" y2="240.884" stroke="#165E67"/>
<line opacity="0.5" x1="1480" y1="280.884" x2="0.000183023" y2="280.884" stroke="#165E67"/>
<line opacity="0.5" x1="1480" y1="320.884" x2="0.000183023" y2="320.884" stroke="#165E67"/>
<line opacity="0.5" x1="1480" y1="360.884" x2="0.000183023" y2="360.884" stroke="#165E67"/>
<line opacity="0.5" x1="1480" y1="400.884" x2="0.000183023" y2="400.884" stroke="#165E67"/>
<line opacity="0.5" x1="1480" y1="440.884" x2="0.000183023" y2="440.884" stroke="#165E67"/>
<line opacity="0.5" x1="0.5" y1="0.383545" x2="0.499993" y2="440.384" stroke="#165E67"/>
<line opacity="0.5" x1="40.5" y1="0.383545" x2="40.5" y2="440.384" stroke="#165E67"/>
<line opacity="0.5" x1="80.5001" y1="0.383545" x2="80.5" y2="440.384" stroke="#165E67"/>
<line opacity="0.5" x1="120.5" y1="0.383545" x2="120.5" y2="440.384" stroke="#165E67"/>
<line opacity="0.5" x1="160.5" y1="0.383545" x2="160.5" y2="440.384" stroke="#165E67"/>
<line opacity="0.5" x1="200.5" y1="0.383545" x2="200.5" y2="440.384" stroke="#165E67"/>
<line opacity="0.5" x1="240.5" y1="0.383545" x2="240.5" y2="440.384" stroke="#165E67"/>
<line opacity="0.5" x1="280.5" y1="0.383545" x2="280.5" y2="440.384" stroke="#165E67"/>
<line opacity="0.5" x1="320.5" y1="0.383545" x2="320.5" y2="440.384" stroke="#165E67"/>
<line opacity="0.5" x1="360.5" y1="0.383545" x2="360.5" y2="440.384" stroke="#165E67"/>
<line opacity="0.5" x1="400.5" y1="0.383545" x2="400.5" y2="440.384" stroke="#165E67"/>
<line opacity="0.5" x1="440.5" y1="0.383545" x2="440.5" y2="440.384" stroke="#165E67"/>
<line opacity="0.5" x1="480.5" y1="0.383545" x2="480.5" y2="440.384" stroke="#165E67"/>
<line opacity="0.5" x1="520.501" y1="0.383545" x2="520.5" y2="440.384" stroke="#165E67"/>
<line opacity="0.5" x1="560.501" y1="0.383545" x2="560.501" y2="440.384" stroke="#165E67"/>
<line opacity="0.5" x1="600.501" y1="0.383545" x2="600.501" y2="440.384" stroke="#165E67"/>
<line opacity="0.5" x1="640.501" y1="0.383545" x2="640.501" y2="440.384" stroke="#165E67"/>
<line opacity="0.5" x1="680.501" y1="0.383545" x2="680.501" y2="440.384" stroke="#165E67"/>
<line opacity="0.5" x1="720.501" y1="0.383545" x2="720.501" y2="440.384" stroke="#165E67"/>
<line opacity="0.5" x1="760.501" y1="0.383545" x2="760.501" y2="440.384" stroke="#165E67"/>
<line opacity="0.5" x1="800.501" y1="0.383545" x2="800.501" y2="440.384" stroke="#165E67"/>
<line opacity="0.5" x1="840.501" y1="0.383545" x2="840.501" y2="440.384" stroke="#165E67"/>
<line opacity="0.5" x1="880.501" y1="0.383545" x2="880.501" y2="440.384" stroke="#165E67"/>
<line opacity="0.5" x1="920.501" y1="0.383545" x2="920.501" y2="440.384" stroke="#165E67"/>
<line opacity="0.5" x1="960.501" y1="0.383545" x2="960.501" y2="440.384" stroke="#165E67"/>
<line opacity="0.5" x1="1000.5" y1="0.383545" x2="1000.5" y2="440.384" stroke="#165E67"/>
<line opacity="0.5" x1="1040.5" y1="0.383545" x2="1040.5" y2="440.384" stroke="#165E67"/>
<line opacity="0.5" x1="1080.5" y1="0.383545" x2="1080.5" y2="440.384" stroke="#165E67"/>
<line opacity="0.5" x1="1120.5" y1="0.383545" x2="1120.5" y2="440.384" stroke="#165E67"/>
<line opacity="0.5" x1="1160.5" y1="0.383545" x2="1160.5" y2="440.384" stroke="#165E67"/>
<line opacity="0.5" x1="1200.5" y1="0.383545" x2="1200.5" y2="440.384" stroke="#165E67"/>
<line opacity="0.5" x1="1240.5" y1="0.383545" x2="1240.5" y2="440.384" stroke="#165E67"/>
<line opacity="0.5" x1="1280.5" y1="0.383545" x2="1280.5" y2="440.384" stroke="#165E67"/>
<line opacity="0.5" x1="1320.5" y1="0.383545" x2="1320.5" y2="440.384" stroke="#165E67"/>
<line opacity="0.5" x1="1360.5" y1="0.383545" x2="1360.5" y2="440.384" stroke="#165E67"/>
<line opacity="0.5" x1="1400.5" y1="0.383545" x2="1400.5" y2="440.384" stroke="#165E67"/>
<line opacity="0.5" x1="1440.5" y1="0.383545" x2="1440.5" y2="440.384" stroke="#165E67"/>
<line opacity="0.5" x1="1480.5" y1="0.383545" x2="1480.5" y2="440.384" stroke="#165E67"/>
</g>
</svg>
