<svg width="100%" viewBox="0 0 52 48" fill="none" xmlns="http://www.w3.org/2000/svg">
                        <path d="M42.9531 19.1283C42.9531 8.58032 33.3217 0 21.4766 0C9.6314 0.000372552 0 8.58156 0 19.1283C0 23.2546 1.44376 27.1697 4.17914 30.468L2.67653 38.4504C2.61767 38.7555 2.72944 39.0726 2.96416 39.2778C3.12847 39.4187 3.33375 39.4951 3.53941 39.4951C3.6333 39.4951 3.72719 39.4775 3.82108 39.4481L11.9093 36.7011C14.4451 37.5286 18.888 38.2566 21.4644 38.2566C33.3029 38.2566 42.941 29.6755 42.941 19.1283L42.9531 19.1283ZM11.6334 34.9413L4.6897 37.3008L5.99259 30.3865C6.03953 30.1224 5.96911 29.8522 5.79288 29.6469C3.15765 26.6007 1.76644 22.9674 1.76644 19.1285C1.76085 9.5553 10.6062 1.7609 21.4766 1.7609C32.347 1.7609 41.1924 9.54958 41.1924 19.1285C41.1924 28.7075 32.3471 36.4961 21.4766 36.4961C18.9938 36.4961 14.4919 35.7391 12.2088 34.9406C12.021 34.8761 11.8213 34.8761 11.6335 34.9406L11.6334 34.9413Z" fill="white"/>
                        <path d="M47.5657 38.9729C50.2892 35.6566 51.7213 31.736 51.6979 27.6152C51.686 24.3343 50.7296 21.1059 48.9274 18.277C48.6692 17.866 48.1234 17.7427 47.7125 18.0069C47.3015 18.271 47.1782 18.8109 47.4423 19.2218C49.0623 21.7691 49.9252 24.6744 49.9367 27.6271C49.9542 31.4598 48.575 35.0991 45.9513 38.157C45.775 38.3623 45.7046 38.6324 45.7575 38.8965L47.0899 45.8049L40.1346 43.4747C39.9469 43.4103 39.7472 43.4159 39.5594 43.4747C37.2822 44.2847 32.78 45.0538 30.2972 45.0653C25.8129 45.0828 21.405 43.7329 17.9008 41.2677C17.5017 40.986 16.9559 41.0859 16.6739 41.4789C16.3922 41.8779 16.4921 42.4238 16.8851 42.7058C20.6884 45.3823 25.4429 46.8436 30.3031 46.8261C32.8858 46.8141 37.3232 46.069 39.8525 45.2355L47.9523 47.9531C48.0462 47.9825 48.1401 48 48.2339 48C48.4452 48 48.6509 47.9236 48.8152 47.7828C49.0499 47.5775 49.1613 47.2605 49.1028 46.9553L47.5648 38.9788L47.5657 38.9729Z" fill="white"/>
                        <path d="M9.59036 16.0295H33.3675C33.8548 16.0295 34.2479 15.636 34.2479 15.1491C34.2479 14.6617 33.8544 14.2687 33.3675 14.2687H9.59036C9.10303 14.2687 8.70996 14.6621 8.70996 15.1491C8.70996 15.6364 9.1034 16.0295 9.59036 16.0295Z" fill="white"/>
                        <path d="M15.5715 22.6088H9.5845C9.09717 22.6088 8.7041 23.0022 8.7041 23.4892C8.7041 23.9765 9.09754 24.3696 9.5845 24.3696H15.5715C16.0588 24.3696 16.4519 23.9761 16.4519 23.4892C16.4519 23.0018 16.0584 22.6088 15.5715 22.6088Z" fill="white"/>
                        <path d="M27.8565 23.489C27.8565 23.0017 27.463 22.6086 26.9761 22.6086H20.9832C20.4959 22.6086 20.1028 23.0021 20.1028 23.489C20.1028 23.9764 20.4962 24.3694 20.9832 24.3694H26.9761C27.4634 24.3694 27.8565 23.976 27.8565 23.489Z" fill="white"/>
                      </svg>